<mxfile host="Electron" modified="2024-01-25T10:11:46.650Z" agent="Mozilla/5.0 (Windows NT 10.0; Win64; x64) AppleWebKit/537.36 (KHTML, like Gecko) draw.io/22.1.21 Chrome/120.0.6099.109 Electron/28.1.0 Safari/537.36" etag="EU5d-MRLdVnrCNT52HoR" version="22.1.21" type="device">
  <diagram name="Page-1" id="bndg_6HbLod__y72PkgO">
    <mxGraphModel dx="1418" dy="828" grid="1" gridSize="10" guides="1" tooltips="1" connect="1" arrows="1" fold="1" page="1" pageScale="1" pageWidth="1169" pageHeight="827" math="0" shadow="0">
      <root>
        <mxCell id="0" />
        <mxCell id="1" parent="0" />
        <mxCell id="rsPY_PISphpZ_V7IE1-7-1" value="" style="shape=image;verticalLabelPosition=bottom;labelBackgroundColor=default;verticalAlign=top;aspect=fixed;imageAspect=0;image=data:image/png,iVBORw0KGgoAAAANSUhEUgAAAOAAAAM6CAIAAAAXAthiAAAAAXNSR0IArs4c6QAAAARnQU1BAACxjwv8YQUAAAAJcEhZcwAADsMAAA7DAcdvqGQAADgDSURBVHhe7Z0JcFVVnv8hJKwBQpFmEQhLVQAtGAYKKdAqhgoU2/SfsDYUNuJASRfTFAMjDDjFlD1qL8HWOD2NJciuoGBQQaEViIIkhFUaMEBAm5gFyELYwxIm/f+G87x1fXnv5YY87vude76fOjV178nlvth+OPdcZPKp93dCBENBiWgoKBENBSWioaBENBSUiKauguYc2ZG+6eXd7/8m4Phy0yuXL33vu5SQ2lNXQdM3vfLXvRtPZGx+MD48+dNx9Mt1e7ekXC+76LuakFpSV0F3v//fWduX7fvk9YDjmy/XfwNHP3rt9s0rvl9ASG14tIJi/HXvhsM7V+3a+JLf0z/gSP/g5XPHdvluTYgLgmZsfePYnveqNgD7Nh3H+PqD41+/j11B1dizAV869tV733z1rlprj+xe/eXmV323JiQMe9AP/jvz0//FQzwsA7fCDX23JiQsgn79SeqXm38floFbUVBip+6C/uartNd2bnyl+tj1/u++Svvjlx++VruR9sfvjn/luzsxnjAIunvTH/7y7m/8xhcbX/n64/8pPv/N9aLvrl06VzUunr12MefqhTNXL5y+WnjqSkF2Wf7JsrwTl/OOX/7hWOn5o6Xnj5R8f+jS2cw9W97w3Z0YTxgE/WLDbz9bs8Q+dqx7ad/W/71y8VxZ3vH8v26v7cA66rs7MZ46CXr2r7u/TKv2jP7wtYxtf75ceAbrop95Dgfu4PuAurFkyZJJkyb5Toie1EnQvR+llpz/5krBt1cKT+GpXfXsvnAGz3GMonP7/bRzPsIl6OLFi8eOHes7IXryE0ELCwsPBQdf9V33IzAp//hf8v+6I5zj+F+CCXrnzp0FCxZ069atVatWI0aMyMnJUfPNmzdfuHBh7969cZCUlPT991X/9X/06NH1HxAdHY1jdSXRjp8IWlBQ8Oabb84LxBtvvJGfn++77kdgUsGJz/OPw6qwDdwwmKAzZ87s06dPdnZ2aWnp7Nmz27Rpc/PmTczHxsbOmDEjMzMzNzd36tSp3bt3r6ysxDxXUA/wE0Hx7zUjI2POnDn/76f867/+69dff63+rduBSYUnvyiAVeEbuGFAQUtKSho0aJCVlaVOKyoqOnTosHLlShxD0N27d6v5K1euxMTE7N27F8cU1AP470GrOxrMTgCTLny7q+D4X8I4cMOAgmKBbNiw4f/93//5zv/+9wkTJuDJjgO7oCAxMVGJS0E9QICXJLujIewEDwTd7WdYHQduGFBQfEsQ1P6dTJw4cdGiRTjwExSb1FWrVuGAgnqAAIIC5ehLL72EZ2UwO0GVoNnpfobVceCGAQUtKiqKioo6cuSIOr1//35CQsL69etxbBe0uLgYb0V4pcMxBB0zZoyaJ5oSWFCAhylek+2P1OrApIun9+C1JowDNwwoKJg2bVr//v3PnTt37dq1+fPnd+nSBe/1mIegeNZjEnZiWR00aJC6PjU1tWvXrmVlZdVf74guBBXUCQ8E3etnWB0HbhhM0PLycmw8OnXqFB8fn5ycnJeXp+Yh6Lhx47CgxsXF4QCvU2oeL/XYj7Zs2RJ7FTVDtKOugl46E2ZBccNgggbDbw9KvESdBc3ZV3DiizAO3JCCEou6ClqUk1l44oswDtyQghKLugpafG5/4ckvwjhwQwpKLOos6HcHCk/uDOPADWsrKPEwdRJ0T9rrxeeyCk/u8pPs4ce3u4rOZeG2vg8gxvPwglZWVn79yf/88M1nf8v64PvMDWEZuNUPRz/DbUP81wFiFA8v6N27dw/uXHsyfeX3+zeEceCGh3auxc19H0PM5uEFvXnzZk72sS+3pGLLGM6R9vrpk0fU36MjpE4raGlp6enTp48cOXI4TOBWuCFuyxWUKOq0B62oqLhz5055WMENcVvuQYni4QUlxAUoKBENBSWioaBENBSUiIaCEtHUu3TpIgeH2MEVlIiGghLRUFAiGgpKRENBiWgoKBENBSWioaBENBSUiCZigrLjTZwQMUHZ8SZOiJig7HgTJwgVFIMdbwLkCsqONwGR24Oy400cEElB2fEmNRJBQdnxJjUTSUHZ8SY1EmZB8/PzQ4dBLNjxJk4Is6BpaWmh00oK4R1vIocwC/rmm2+GjtMphHe8iRzCL2iNAUUAk8R2vMGVK1emTZvWpk2bDh064IJ79+6peVyWkpLSt2/fpk2b4lcdPny4xvlXX321R48eLVq0GDt2bHZ29nPPPde2bdt27dq9/fbb6poNGzY8/vjjjRs37tKly2uv8TeYP49E0BodhUkFgjveI0eOnDJlCi4+f/58r169IN+D2/wdGs2dO/fQoUPFxcXjxo0bMGBAjfOzZs06ceLEmTNnHnvssdatW2/cuLGkpAT/K8XExBQVFV26dKl+/fqrV6++evUqvgdVcCR2HpWgAI6ePn3a94WfApMKpXa8ISWkwamaT01NHTx4sDqGcHv27FHHmzdvxnqpjp3MP/vssxMmTFDH0DEqKgq/gfG/T7169ayVm1QnYoKK7Xinp6dDGriliI6O7tmzp7oAp5ZwGRkZ+JI6djLvl15WH40FOzk5GRsP7EAKCwt9XyM2IvaIF9vxPnr0KJbSgH9YFnZB1fG2bduGDRuGGTzr1QyxiNhLktiOd1lZmTpQ83YekaCKZcuW4f3Jd0J+JPyC1mgngEmSO954qerXr9+pU6fu3r2LV3JsTNV82AXFhnjLli3YkuKFbN68eU888YTvy+RHwiyowz+ofyCo3I737du38VaO+WbNmvXo0WP58uVqPuyCYt+ZlJSE7wrvVQMHDjx48KDvy+RHwiyow//UCZPY8SZOCLOgDqkSlB1v4oCICcqON3FCxARlx5s4IXKCsuNNHBAZQdnxJg6JgKCV7HgTx0RAUHa8iXMiICg73sQ5kVlB2fEmDonMHpQdb+KQCAhKiHMoKBENBSWioaBENBSUiCZA7dj3FUIEEGAF9fOVgyOCw+1H/M2bN3bs+NR3QkhNUFAiGl1fkphZMgRdBWVmyRB0FZSZJUPwpqAYzCx5A88KysySN9B2D8rMkhloLCgzSyagr6DMLBmBxoIys2QCsgSVmVmy/5A6i8rKyqVLl164cMF3Th4NsgSVmVkKKOj169c7deqUnp7uOyePBlmCOvz5ty5nlgIKStxBnKAOf4K4m5klCPrMM8/06tWrefPmQ4cOzc3NVfOxsbEHDhzAQbBOEqk7EgWt0VGYVOBiZgmCPv/88/v37z9//vzkyZOtH9RtCYoLAnaSSN0RKiiAoxIyS8D+iL98+XJ0dLSqLtkFtS6wd5JI3dFVUNcyS8DuH+jateu6detwEFBQ+8+oJ3VH10e8a5kl4CdoQkLC2rVrcUBBXUDXlyTXMkvA7t/FixcbNGigqksU1AXECVqjnQAmuZlZgn8vvvji9evXi4qK8A709NNPq3kK6gKyBJWZWWrSpMn06dM7duwYFxc3fvz40tJSNU9BXUCWoHpllogLyBLUIVWCCsgsERfQVVAJmSXiAroKKiGzRFxAW0GZWTIDLQVlZskc9BO0kpklk9BPUGaWjEI/QZlZMgotV1BmlsxByz0oM0vmoJ+gxCgoKBENBSWioaBENBSUiIaCEtGIENQvjcPBYQ2uoEQ0FJSIhoIS0VBQIhpf7dh3RogwuIIS0VBQIhoKSkSjq6CsHRuCroKydmwIugrK2rEheFNQDNaOvYFnBWXt2Btouwdl7dgMNBaUtWMT0FdQ1o6NQGNBWTs2AVmCyqwdP2oqbeFk+4+7J0CWoDJrx2FhyZIlkyZN8p38FHs4mYL6IUtQhxkal2vHYWHx4sVjx471nQSHgvohTlCHIS83a8e3b9+eP39+165d4+PjR40alZeXh8k7d+4sWLCgW7durVq1GjFiRE5Ojro4YPl49OjR9R8QHR2NY8zExcXt27fvySefbNas2c2bN+1Fm4BlZWORKGiNjsKkAhdrx9OnTx8wYEB2djaexTt27FC75JkzZ/bp0weTpaWls2fPbtOmjfrRjTAsYPnYbwXFZdAX+5mLF6v+woBd0IBlZWMRKiiAoxJqx/AsKirq+PHjvvMHlJSUNGjQQDWPQUVFRYcOHVauXIlj+zPaXj6uLuju3bt9J0GaYPaysrHoKqhrtePMzMyGDRv6reVq0v4HDhMmTFi4cCEO7IbZq3PVBbXvNQMKCqyysrHo+oh3rXaMnWKjRo18Jz8C8/ysnThx4qJFi3AQXkGtsrKx6PqS5FrtGHtEvNxY70CKoqIiPPdV8xjcv38fJq1fvx7HIQQdM2aMOgZOBLWXlY1FnKA12glgkpu1Y6yOw4cPLywsvHXr1s6dO7EBxeS0adP69+9/7ty5a9eu4R2/S5cueK/HfDBBU1NT8bwuKyvLz8/HaQhBA5aVjUWWoDJrx9AF7+zt27ePi4sbOHDgsWPHMFleXj5nzpxOnTrFx8cnJyerP3sCwQTNzc1NTExs2bIlHhE4DSZosLKyscgSlLVj4ocsQR1SJShrx2agq6CsHRuCroKydmwI2grK2rEZaCkoa8fmoJ+glawdm4R+grJ2bBSREVT9RFL1o0lr+9NJWTs2Cv0EZe3YKPQTFNtE1o7NQT9BiVFQUCIaCkpEQ0GJaCIjKCEOoaBENCIEtZ71HBx+gysoEQ0FJaKhoEQ0FJSIhrVjIhquoEQ0FJSIhoIS0egqKGvHhqCroKwdG4KugrJ2bAjeFBSDtWNv4FlBWTv2BtruQVk7NgONBWXt2AT0FZS1YyPQWFDWjk1AlqDya8e5ubn16tW7dOmS75w8YmQJKr92XKOgIarG5CGQJajDDE0Ea8c1CuoX7CJ1RJygDkNebtaOb9y48ctf/rJ169adO3eeMWOGJegLL7yQkJDQuHHjxMTETZs2YaZ61bj6NaRWSBS0RkdhUoGLteNf/OIXAwYMOH78+OnTp/EEtwTNzMzEprmiomL58uVNmjSBx5j0W0EDXkOcI1RQAEeF1I4bNGhw9OhRdRrwEX/z5k1MnjhxAsfBHvH2a4hzfIJa/2/I6jRSOBfUzdoxBLX+bMEuaFZW1vjx4zt27NiiRQtMqqimn6ABryHOESpojY9412rHe/fujYqKun//vjq1BD1//nzTpk1XrFhx9uxZPLgDChrsGuIciYI6eUlyuXZsiWUJumbNmn79+qlJYBfUqhoHu4Y4R5ygNdoJYJKbtePk5OSnnnoKapaXl2M5VIJu3769YcOGEK6oqAiv6pZ89qpxsGuIc2QJKrN2XFpaOmTIEKyj7du3//Wvfx0bG6v2oPPmzWvZsmXnzp1feeWVhIQEJR88tleNA15DnCNLUMm1Y/4JUUSQJahDqgRl7dgMfILqBUxi7dgQdBWUtWND0FZQ1o7NQEtBWTs2B/0ErWTt2CT0E5S1Y6PQT1DWjo1CyxWUtWNz0HIPytqxOegnKDEKCkpEQ0GJaCgoEQ0FJaKhoEQ0IgS1/jYqB4ff4ApKRENBiWgoKBENBSWiqae2or4zQoTBFZSIhoIS0VBQIhpdBWXt2BB0FZS1Y0PQVVDWjg3Bm4JisHbsDTwrKGvH3kDbPShrx2agsaCsHZuAvoKydmwEGgvK2rEJyBLU27Xj2NjY3bt3+06IM2QJ6oHacQgo6EMgS1CHGRrJteMQUNCHQJygDkNeEmrHV65cmTZtWps2bTp06LBw4cJ79+6p65s3b47T3r174yApKen7731/K8Au6J07dxYsWNCtW7dWrVqNGDEiJycHk8nJyfhnVxeA5cuXDxkyxHdiKhIFrdFRmFQgoHY8cuTIKVOmlJaWnj9/vlevXikpKep6iAiPMzMzsdxOnTq1e/fu6h/ELujMmTP79OmTnZ2NXz579mxYfvPmzY0bN7Zr187ahQ8bNuytt95Sx8YiVFAARyXXjiFl/fr1sYiq+dTU1MGDB6tju4i4ICYmBhtr+3xJSQnumZWV9eCSv1dUVGANXrlyJZbqJk2aqIshbqNGjR5uL+EldBU04rXj9PR0HDT+kejo6J49e6pr7IKCxMREyIcDax73bNiwof3PKyZMmIBdAQ4mTZo0Z84cHLzzzjtDhw598EWj0fURH/HaMdZULI0B/1DMT1BsNFetWoUDaz4jIwOC2v/pJk6cuGjRIhykpaW1b98eX8LGFHtQ9VWT0fUlKeK147KyMqyahw4dUvN27IJih2Bdhvldu6r+zlRRURGkt+4J+xMSEtavX4/j8vJyXLZ161Y867ETUBeYjDhBa7QTwKSI144xjxedfv36nTp16u7du4cPH1Z7RwDD8Ly+du0a7MTSOGjQIDXftm1bvEipRRev//379z937hwumz9/fpcuXfBery7De1XHjh2HDx+uTg1HlqB61Y5v3749d+5cLH7NmjXr0aOH9UTGBePGjcN8XFwcDqyFEHK3atVqwYIFOIbr2Gt26tQpPj4evwHy8vLUNWDbtm34PaC2rUSWoN6oHUNQ+x60tkBW7Arwu8J3bjayBHVIlaCCa8d1FDQ1NXXUqFG+E+PRVVDJteM6Ctq3b981a9b4ToxHV0El147rIujJkydjYmLKysp858ajraCsHZuBloKydmwO+glaydqxSegnKGvHRqGfoKwdG4WWK2gpa8fGoOUelLVjc9BPUGIUFJSIhoIS0VBQIhoKSkRDQYloRAhqpW05OPwGV1AiGgpKRENBiWgoKBFNPbUV9Z0RIgyuoEQ0FJSIhoIS0egqKGvHhqCroKwdG4KugrJ2bAjeFBSDtWNv4FlBWTv2BtruQVk7NgONBWXt2AT0FZS1YyPQWFDWjk1AlqDya8fEZWQJKr92bGfJkiWTJk3ynZBHgyxBHWZoIlg7trN48eKxY8f6TsijQZygDkNebtaOA1aNR48eXf8B0dHROMbM7du358+f37Vr1/j4+FGjRtnLMuShkShojY7CpAIXa8fBqsZ+K+j06dMHDBiQnZ19/fr1HTt2ONxMk9AIFRTAUQm14xBVY7ugxcXFUVFRx48fV6ckXOgqqGu14xBVY7ugKmDMn94YdnR9xLtWOw5RNbYLum/fvkaNGqljEkZ0fUlyrXYcomoMQceMGaOOVRQ5JydHnZJwIU7QGu0EMMnN2nGwqjH2o3hnh8H5+fk4nThx4vDhwwsLC2/durVz507GtMOCLEFl1o6DVY1zc3MTExNbtmyJVR+neHmHyu3bt4+Lixs4cOCxY8fUZaQuyBJUcu2YRARZgjqkSlDBtWMSRnQVVHLtmIQRXQWVXDsmYURbQVk7NgMtBWXt2Bz0E7SStWOT0E9Q1o6NQj9BWTs2Ci1XUNaOzUHLPShrx+agn6DEKCgoEQ0FJaKhoEQ0FJSIhoIS0YgQ1ErbcnD4Da6gRDQUlIiGghLRUFAiGtaOiWi4ghLRUFAiGgpKRKOroKwdG4KugrJ2bAi6CsrasSF4U1AM1o69gWcFZe3YG2i7B2Xt2Aw0FpS1YxPQV1DWjo1AY0FZOzYBWYIKrB1XVlYuXbr0woULvnPiLrIEFVg7vn79eqdOndLT033njmELOSzIEtRhhkZI7Tg0fiVP8nCIE9RhyMvN2nFsbOyBAwdw0Lx585SUlL59+zZt2rR3796HDx9WF2zYsOHxxx9v3Lhxly5dXnut6ibVW8gvvPBCQkICrklMTNy0adODXxf0hgHDyQGjy6D6p3sJiYLW6ChMKnCxdmwJCgnmzp176NCh4uLicePGDRgwAJOXLl2CiKtXr7569Wpubq7VpPNbQTMzM7HDrqioWL58eZMmTW7cuIHJgDcEAcPJAaPLwT7dMwgVFMBRCbVjYBd0z549anLz5s1Y9nCAb7JevXrff+//l6eCPeJv3ryJ60+cOIHjgDcMGE4OFl0O9umeQVdBXasdg4CCZmRk4PGNAyzzycnJrVq1WrBgQWFhofoq8BM0Kytr/PjxHTt2bNGiBZQ6cuQIJgPeMGA4OVh0OdinewZdH/Gu1Y5BaEEV27ZtGzZsGK7E01bN2AXF+ofVccWKFWfPnsXDPbSgAcPJIaLLoPqnewZdX5Jcqx0DJ4Iqli1b1rZtW3UMQa0W8po1a/r166eOQWhBA4aTQ0SXLeyf7hnECVqjnQAmuVk7Di0o3nu2bNmCdxS8vsybN++JJ55QF9hbyNu3b8dTG1IWFRXhdT60oCBgODlgdDnYp3sGWYLKrB2HFhQaJSUlxcfH4yE+cODAgwcPqgv8WsiwB8edO3d+5ZVXEhISQgsaMJwcMLoc7NM9gyxBWTsmfsgS1CFVgrJ2bAa6CsrasSHoKihrx4agraCsHZuBloKydmwO+glaydqxSegnKGvHRqGfoKwdG4WWKyhrx+ag5R6UtWNz0E9QYhQUlIiGghLRUFAiGgpKRENBiWhECGqlbTk4/AZXUCIaCkpEQ0GJaCgoEQ1rx0Q0XEGJaCgoEQ0FJaLRVVDWjg1BV0FZOzYEXQVl7dgQvCkoBmvH3sCzgrJ27A203YOydmwGGgvK2rEJ6Csoa8dGoLGgrB2bgCxBBdaO8f2kpKRcvCj3j1TtP+jee8gSVGDt+MqVKx07dgxdO/YLG7vcOaag7uEwQyOtduwXlQsWQXxEUFD3cB7ycq12fP/+fStrFLA37Bc29jtNTk7GP86DO1WxfPnyIUOG+E5sjBo1CuuuOr5z507Tpk1VKxbk5eXhbvi/wWrHEPSZZ57p1atX8+bNhw4dmpubq+aD9ZXxa3v37o2DpKQkK/IZbD7iKWWJgtboKEwqcKt2bBc0YG8YhFhBN27c2K5dO2tjPWzYsLfeeksd28GklaL74osvGjRoAEvUKZxWXwr26bDn+eef379/P+YnT55stbwC9pVjY2NnzJiBL8HjqVOndu/eXf2PHHBeQkpZqKAAjoaIyRa6VTu2BA3WGwYhBIUWkENV4eBWo0aN8G8d98S/cgt8CSbh5hcuXMDxv/3bv/3qV7/Clbdu3cIp1uDf/OY3IT7d/oi/fPkyVu6srCx1qrD3lSHi7t271TzuFhMTo763gPMSUsq6Cupa7dgSNFhvGIQQFOCFac6cOTh455138AjGAe6GW1koR//xH/9RpWDxRD527BjWyO3bt9+9exfqfPPNNyE+Haf2PWjXrl3XrVuHg4B9ZbuIAJ+1cuVKHAScxyIa8ZSyro9412rHlqAhesOhBU1LS2vfvj3+WUaMGKH6hQH5r//6L6j83XffYYuJ0//4j//AUgppYBhOQ3y6n6DYd65duxYrbsC+sp+I3bp1W7VqFQ6CzYPIppR1fUlyrXZsCRqiNwwjrbAx8DstLy/Hv92tW7fiWa+ysAHBnVu2bPn6669jQ4nTr776Cmvkv//7v+N/DZyG+HS7oBcvXsT+Fd9tsL6yXcTi4mLrnsHmLSKVUhYnaI12ApjkWu3YEhTHAXvDwB42rn4K8NqBhXD48OHqNCD4R8ZCCz755BOc4iUdj2acfv755+qCYJ8OQV988cXr168XFRWNGzfu6aefxmSwvjJExNv6tWvXYOHEiRMHDRr04B6B5yWklGUJKrB2bBc0YG8Y+IWN/U4BnpK4idrthQBrJ6xSr9tgwoQJ8ObOnTvqNNinY2GePn06fgPExcVh0wmZ1HzAvjJuCIlxiotxYK3oAeclpJRlCerwP3XCJNdqx3ZBH5q8vDw8NC11IghEtO81LYLNRxxZgjqkSlC3asd4zNVdUDz0R40a5TuJKBTUDWCSO7VjbDZOnDgBQXNycnxTD0Xfvn3x1uI7iSgU1A1gkju1Y+wdsf2aNWuW7/yhOHnyZExMDN6ZfOcRhYK6QZWgrB2bgZaCsnZsDvoJin0ha8fmoJ+gd1k7Ngn9BGXt2Ci0XEFLWTs2Bi33oKwdm4N+ghKjoKBENBSUiIaCEtFQUCIaCkpEI0JQK23LweE3uIIS0VBQIhoKSkRDQYloWDsmouEKSkRDQYloKCgRjcaCMnhsAhoLyuCxCWgsKIPHJuBZQTEYPPYAXhaUwWMPoPMelMFjA9BbUAaPPY/WgjJ47H30FpTBY88jTlCHPwUcuBY8BtaPz6ysrFy6dKkqbvn1X8ijQJygAoPHwBL0+vXrnTp1UvFjCuoC4gR1WKJxOXgc8AcQU1AXkCiow5aXa8FjYBcUxwcOHMABBA2YGSZhRKigNToKkwrcCh6DYIIGzAyTMCJXUABHJQSPQTBBrUd8wMwwqTsaC+pa8BjUKCiwMsMkjGj8iHcteAycCJrwIDPsOyFhQuOXJNeCxwBS7trl+7tOAQW1MsPqlIQLiYLWaCeASa4Fj0Hbtm1TUlLUf0GwC1o9M0zCizhBBQaPwYoVK1q1arVgwQIcW4IGywyTMCJOUIHBYxJBxAnqkCpB3QoekwiisaDuBI9JZNFYUHeCxySy6Cwog8cGoKugDB4bgpaCVjJ4bAxaCsrgsTloKSiDx+ag6wrK4LEh6LoHZfDYELQUlJgDBSWioaBENBSUiIaCEtFQUCIaEYJaaVsODr/BFZSIhoIS0VBQIhoKSkTD2jERDVdQIhoKSkRDQYloNBaUtWMT0FhQ1o5NQGNBWTs2Ac8KisHasQfwsqCsHXsAnfegrB0bgN6CsnbsebQWlLVj76O3oKwdex5xggqvHROXESeo8NoxcZnICKr+gp/6m35+f9nPYYZGQu2YuIBEQR2GvCJVO75z586CBQu6devWqlWrESNG5OTkqPmysrLx48fHxcX17dv3V7/6VZMmTVSYZsOGDY8//njjxo27dOny2mv8Cc61Q6igNToKkwoiVDueOXNmnz59srOz4d/s2bPbtGmjfmLjz3/+8yFDhpw5c+bYsWP/+Z//Wa9ePVxw6dKl+vXrr169+urVq7m5uYcOHVI3IQ6RKyiAo9JqxyUlJQ0aNLCqxhUVFR06dFi5cuXFixch4vHjx9X8d999pwTF94+D77/n36t6SDQW1Hnt+NC+Tz/d8bGjsf2j0znf+j7DhiVoZmZmw4YN7X/OMGHChIULF+7btw/iWuu9JShmkpOTVaWusLBQfZU4R+NHvPPa8SeffnTwyP4j3xy0xuFvDhw+ipF16GjWwcP7sw5m7j+wL2P/13syvtz62ce+z7BhCZqRkQFB7d/VxIkTFy1aBEGjoqLu37+vJi1B1em2bduGDRuGm+BZr2aIQyIjaAicvyQ5rx1v+WQzjNyZvqP6+GL39r/s/HTHF9s+g8bbP97z9W5c7PsMG3BL1Y6LioogolU1hpEJCQnr168vLi621479BFUsW7asbdu2vhPiDImC1mgngKDOa8ebt7yP9dJPTYzPd30GO7d/vhV2btv+8dbPtqTv2YWLfZ9hw147njZtWv/+/c+dO3ft2rX58+fj3Rzv9Wr+qaeewptQeXn5n//8ZyUoNqlbtmzBGxKO582b98QTTzy4H3GKOEEfRe34/c3vHTqSFdTOHbDzo62fbvl424e70qsu9n2GDXvtGP7NmTOnU6dO8fHx2F/m5eWpazCPF/yf/exn7du3nzx5shIU+86kpCRc2bRp04EDBx48eFBdTBwiTtBHUTt+7/11Bw9nQsq9GekFhXnlt8tvld/KOXt6xxdVL0+wEzeEnVs+2fT5zu24WH1EXTh79iwEvXz5su+cPCziBHVIlaCOa8fr3lt94FAG9pe5P/xtx18+/fiTtJu3qv7k8tq1q3u+/lLdEHZ++NEH2z/fhovVTF3Ay36jRo1qfA6QGtFYUOe149Xr3sk6uO/LPTvfe3/tJ5+mfbR184dpH1Tcr8B9LIc+/Oj9zWkbsZriYjVTW7799tt169Zh1bxx48akSZN+/vOf+75A6oDGgjqvHb+z+u39B77Gm9CDTWfVCzvehD7bsc13rwdsStv4web3Pt6ahot9U7Xk+PHjo0eP7tChA3arY8aMKSgo8H2B1AGdBXVcO377nWX7Mr/yeyXy3ehHYOfGTevTPtqEi31TRAC6Clqr2vGyt/+0Z1867FSvRHjK++5iY+MH6/F6tOnDjbjYN0UEoKWg2DjWqnb8p2Wp2IBW2flZlZ0fbf1w6eu/T3ntd39Y+tvfpbz6uz+8/OrvXn5v49r1G9ZAU1zs+xgiAC0FrW3tOPVPf9z1JZ7uW9Qb0paP8cJe9Ur0wYcb3t/07gasnQ/sXPfuqnc3rsXFvo8hAtBS0NrWjv+YmvL5ru0fb6uyM+2BnVWvRB9i0/nuhvfXQcr1761e++6qNeveWbN+JS72fQwRgK4raGltasd/fOMP2HpWvR7hEb9tS5WmH23avGXjps0blKNq+VyzbuU7q95+7fXf+z6GCEDXPWitase7v9y19I+/x46zxoGN6d6v9/g+hghAS0GJOVBQIhoKSkRDQYloKCgRDQUlohEhqPX/PcfB4Te4ghLRUFAiGgpKRENBiWhYOyai4QpKROMT1HqrV6eECIGCEtFoLChrxyagsaCsHZuAxoKydmwCnhUUg7VjD+BlQVk79gA+QXWEtWMT0FtQ1o49j9aCsnbsffQWlLVjz6O3oK7VjgNitWnIo0NXQV2uHQeEgrqAroK6XDsOCAV1ASmCFhYWHgpO9YggTHKzdhywWAxBp06d+g//8A9Nmzbt27evFep84YUXEhIScHFiYuKmTZvUZFxc3L59+5588slmzZrdvHnzypUr06ZNa9OmTYcOHRYuXHjv3j11GfFDiqAFBQVvvvnmvEC88cYb+fn5vut+BCYVuFU7DlYshqDPP/98VlYWLhgxYkRSUpKaz8zMxDdcUVGxfPnyJk2a3LhxA5PwtXfv3nv37r14seq/howcOXLKlCmlpaXnz5/v1atXSgp/5mNgpAhaWVmZkZExZ84cFeq0CFadg0mFbtWOgxWL7Y946IvlUB1bYKXELzxx4gSOIah1MaSE8VhE1WlqaurgwYPVMfFD0B60uqMhmogwybXaMb6BgMViu6Cff/45HuLqGGvq+PHjO3bs2KJFCwiqAp4QdM8e3w92TE9PxzxmFNHR0T179lRfIn7IekmyOyqqdgyqF4sDCorVEVvSFStWnD17Fg/3gIIePXo0JibGSVCPyBIUKEdfeuml0MXOKkFdrB1b2IvFAQVds2ZNv3791CQIKGhZWRlWTWsvS0IgTlCApSUnJyf0AgNBXasdBysWBxR0+/btDRs2hJRFRUV4nQ8oKJg5cyY8PnXq1N27dw8fPozfjb4vkJ8iUVAnPBDUpdpxsGJxsD0oJG7ZsmXnzp1feeWVhISEgILevn177ty5+GqzZs169OiB933fF8hP0VhQybVjEi50FlRw7ZiEC40FlVY7Jo8CjQWVVjsmjwKdBWXt2AB0FZS1Y0PQUlBsHFk7NgQtBWXt2By0FJS1Y3PQdQVl7dgQdN2DsnZsCFoKSsyBghLRUFAiGgpKRENBiWgoKBGNCEGtH5/LweE3uIIS0VBQIhoKSkRDQYloWDsmouEKSkRDQYloKCgRjXGCspGsF8YJykayXhgnKBvJekFB/QcbyaKgoP6DjWRRmLcHZSNZK0wUlI1kjTBQUDaSdcJEQdlI1giPCJqfn++w6hLxRvIjpbKycunSpRcuXPCdh6RWF0cKjwialpYWOlujkNBIBkuWLJk0aZLvJKxcv369U6dO6enpvvNq2D+6xosl4BFB33zzzdDhL4WERjJYvHjx2LFjfSfuEsGPfji8I2iNcToAk9xsJAdMGo8ePbr+A6Kjo3GMmdu3b8+fP79r167x8fGjRo3Ky8t78Kv9ad68OW7Su3dvHCQlJVnt0LifdpRjY2MPHDiA+eqF5uofbV2Me6akpPTt27dp06b4iMOHD2MSRLzK7ClBnQQUC9xqJINgSWO/ZWz69OkDBgzIzs7GM3fHjh3BNtOQacaMGZmZmbm5uVOnTu3evbv6x4SC9o6yci5Yodnvoy1BcZO5c+fisuLi4nHjxuH7URdEvMrsNUEBHD19+rTvCz8FJhW61UgOkTS2WwIhoqKirNa84v79+xDLQk1CJqsbhtvGxMSoPh3csuaBci5YoTmEoFZnbPPmzVhHcSChymycoM4byQ4HbhhQ0BBJY7slWBEbNmzot+QfOXIEv9ZCOWoXFCQmJq5cuRIHuLm9Yaecww0DFpqdCJqRkYHvFgcSqszGPeKdN5IdDtwwoKAhksZ2S7B9bNSokToOjZ+g3bp1W7VqFQ6gTnVB1XH1QnOtBJVQZTbuJcl5I9nhwA0DChoiaQxLxowZo46xccRjNCcnR52GwC4oNgbWzUMIqrAXmu0fDUILKqHK7B1Ba7QTwCTnjWSHAzcMKCgIljTGZg7v7PjXn5+fj9OJEycOHz4cD+Jbt27t3LmzpKREXeYHZMJ79LVr12AnfsmgQYPUfEBBgxWa/T46tKAg4lVmjwjq8A/qHwjqNEHrcOCGwQQNljTGazV2kC1btsSqj1O8vMOD9u3bx8XFDRw48NixY+oyPyAT3q9xN1yGA8vjgIIGKzT7fXSNgka8yuwRQR3+p06Y5LyR7HDghsEEDS+Qyb4HNQSPCOqQKkEdN5IdDtyQgj46jBPUeSPZ4cANKeijwzhBnTeSHQ7ckII+OswT1HEj2eHADd0R1EzMErRWjWRH49tdReeycFvfB5BwY5CglbVsJDsZuNUPRz/DbWv8Ey7ycBgkaG0byQ4Hbnho51rc3PcxJKwYJGhtG8lOR9rrp08ewc19H0PCilkraK0ayU7ArXBD3JYr6CPCrD1orRrJDsENcVvuQR8RBglKdISCEtFQUCIaCkpEQ0GJaCgoEY0IQa20LQeH3+AKSkRDQYloKCgRDQUlomHtmIiGKygRDQUloqGgRDTGCcrasV4YJyhrx3phnKCsHesFBfUfrB2LgoL6D9aORWHeHpS1Y60wUVDWjjXCQEFZO9YJEwVl7VgjPCKoprXjSltv2O9HzROFRwTVq3ZsYe8NU9CAeERQhxkaIbXjgFDQgHhHUIchLzdrx82bN3/11Vd79OjRokWLsWPHZmdnP/fcc23btm3Xrt3bb7+trrGHYJ555plevXrhVw0dOjQ3N1ddUD1abBSeErRGR2FSgYu1Y1g1a9asEydOnDlz5rHHHmvduvXGjRtLSkrw3cbExBQVFeEau6DPP//8/v37z58/P3nyZJXeChYtNgevCQrgqITaMbA/tZ999tkJEyaoY9gWFRWF30g4tgtqXXz58uXo6OisrKxg0WJzME5Q12rHwO5c9YqrSnYEFBR07dp13bp1eBQEjBabg3GPeNdqx6AugiYkJKxdu1YdV48Wm4NxL0mu1Y7BQwt68eLFBg0aHDlyRJ0q7NFic/COoDXaCWCSm7Xj2gr64osvXr9+HS9P48aNe/rppzEZLFpsDh4RVGbtuFaCNmnSZPr06R07doyLixs/fjyMxGSwaLE5eERQE2rHZuIRQR1SJai2tWMzMU5QfWvHZmKcoPrWjs3EPEFZO9YKswRl7Vg7DBK0krVjDTFIUNaOdcQgQVk71hGzVlDWjrXDrD0oa8faYZCgREcoKBENBSWioaBENBSUiIaCEtFERlCVDlMNMQ6OEIMrKBENBSWioaBENBSUiMZXO7aGb5oQGdT7+qf4pgmRQb3rP8U3TYgMKCgRjXGCsnasF8YJytqxXhgnKGvHekFB/Qdrx6KgoP6DtWNRGPdfklg71gsTBWXtWCMMFJS1Y50wUVDWjjXCI4JqWjsmNeIRQTWtHYeFJUuWTJo0yXfiOTwiqMMMjeTa8UPj1w/xGN4R1GHIy83acVxc3L59+5588slmzZrdvHnzypUr06ZNa9OmTYcOHRYuXHjv3j11WfPmzXHau3dvHCQlJVllzjt37ixYsKBbt26tWrUaMWJETk6Omrff9p/+6Z/qPyA6Onr06NH4qsfqyJ4StEZHYVKBu7VjaIe9x8WLVf9xf+TIkVOmTCktLT1//nyvXr1SUlLUZbGxsTNmzMjMzMzNzZ06dWr37t3V9z9z5sw+ffpkZ2fjl8yePRtmqx/y6Hdb+wrqvTqy1wQFcFRO7VjVugCkhDpYRNVpamrq4MGD1bEV9QK4ICYmBvKVlJQ0aNAgKytLzVdUVGDdXblyJY7ttwV2Qb1XRzZO0EjVjtPT06EOZhR4Ivfs2VN9yS4oSExMhIhYUBs2bGj/o4kJEyZgJ4AD/HLrtsAuKJZej9WRjXvER6p2fPToUSyNAf8szE9QbDpXrVqVkZEBQe3/IBMnTly0aBEOQgiq8FId2biXpEjVjsvKyrBqBtwU2gUtLi5WlxUVFUVFRVnB4/v37yckJKxfvx7H1QUdM2aM78SGN+rI3hG0RjsBTIpU7Rjgpadfv36nTp26e/fu4cOHsdFU8xAUz+5r167BTiyTgwYNUvN45e/fv/+5c+fwpfnz5+OtHO/1mPe7LbazXbt2xW+A/Px879WRPSKo/NoxuH379ty5c7EQNmvWrEePHsuXL1fzEHTcuHGYj4uLwwFej9R8eXn5nDlzOnXqFB8fj51lXl6emve7Ld7WsW1t2bIlniHeqyN7RFCta8d+e1BixyOCOqRKUHm1YwoaAuMEFVg7pqAhME5QgbVjChoC8wRl7VgrzBKUtWPtMEjQStaONcQgQVk71hGDBGXtWEfMWkFZO9YOs/agrB1rh0GCEh2hoEQ0FJSIhoIS0VBQIhoKSkQTGUFVMcweEOPgCDi4ghLRUFAiGgpKRENBiWgoKBENBSWioaBENBSUiMY4QVk71gvjBGXtWC+ME5S1Y72goP6DtWNRUFD/wdqxKMzbg7J2rBUmCsrasUYYKChrxzphoqCsHWuERwTVvXacm5tbr169S5cu+c7Jj3hEUN1rxxQ0GB4R1GGGRmztmIIGwzuCOgx5RbB27Hd648aNX/7yl61bt+7cufOMGTMoaEA8JWiNjsKkgsjVjv1Of/GLXwwYMOD48eOnT59esmQJBQ2I1wQFcDRETLYwQrVjYD8tLi5u0KDB0aNH1Skf8cEwTtBI1Y6B/TQzMxOCWn/yQEGDYdwjPlK1Y2A/xYM+Kirq/v376pSCBsO4l6RI1Y6B/RTb0Pr161sxYwoaDO8IWqOdACZFsHbsd5qcnPzUU09BzfLy8hUrVlDQgHhEUC1qx36npaWlQ4YMwTravn37X//617GxsRS0Oh4RVN/a8Y0bN3xHJBAeEdQhVYLKqx2TEBgnqMDaMQmBcYIKrB2TEJgnKGvHWmGWoKwda4dBglaydqwhBgnK2rGOGCQoa8c6YtYKytqxdpi1B2XtWDsMEpToCAUloqGgRDQUlIiGghLRUFAimsgIeom1Yw5ngysoEQ0FJaKhoEQ0FJSIhoIS0VBQIhoKSkRDQYlojBOUtWO9ME5Q1o71wjhBWTvWCwrqP1g7FgUF9R+sHYvCvD0oa8daYaKgrB1rhIGCsnasEyYKytqxRnhEUN1rx3ZY/LDjEUF1rx3boaB2PCKowwyN2NqxHQpqxzuCOgx5uVY7XrBgwRNPPKF+qNjly5d/9rOfrVmzBscbNmx4/PHHGzdu3KVLl9de8/3CYOXjgBcbhacErdFRmFTgVu341q1bsOrll1/G8b/8y78MGzYMB9Cufv36q1evvnr1KlbKQ4cOPbg2cPk42MVG4TVBARwVUjvesWNHo0aNli9f3qxZs7/97W+YwTcG+b7//id/YSpY+TjgxaZhnKBu1o7B5MmTIdkbb/j+HApLe3JycqtWrbABKCwsVJPByscBLzYN4x7xbtaOwaxZs2Abvj3f+QO2bduGJ35sbCwe3zgNXT72u9g0jHtJcrN2jKWxadOm2IZCrx9++ME3+yPLli1r27YtDpyUj62LTcM7gtZoJ4BJrtWO792716tXr9/+9rc4xhL4z//8zzioqKjYsmULXnpKS0vnzZuH1/wH1wYuHwe72Cg8IqjA2vHvf/97KAVNcXzu3LnGjRtv2rQJW8mkpKT4+HisrAMHDjx48KC6OGD5ONjFRuERQfWtHdth+bg6HhHUIVWCsnasFcYJytqxXhgnKGvHemGeoKwda4VZgrJ2rB0GCVrJ2rGGGCQoa8c6YpCgrB3riFkrKGvH2mHWHpS1Y+0wSFCiIxSUiIaCEtFQUCIaCkpEQ0GJaCIj6CXWjjmcDa6gRDQUlIiGghLRUFAiGgpKRENBiWgoKBENBSWi0VhQdotNQGNB2S02AY0FZbfYBDwrKAa7xR7Ay4KyW+wBdN6DsltsAHoLym6x59FaUHaLvY/egrJb7HnECeqlbjGpO+IE9VK32GLJkiWTJk3ynZDaIE5Qh0EZLbrFFosXLx47dqzvhNQGiYI6THK51i0G1avDycnJ+CbVV8Hy5cuHDBmCg+pXjh49uv4DoqOjcYyZK1euTJs2rU2bNh06dFi4cKFK1YDmzZu/+uqrPXr0aNGiBYTOzs5+7rnn2rZt265du7fffltdYxpCBa3RUZhU4Fa3+FKg6vDGjRvhjbVdHjZs2FtvvRXwSuC3go4cOXLKlCmlpaXnz5/v1atXSkqKmofWs2bNOnHixJkzZx577LHWrVvjU0pKSvC/SUxMTFFRkbrMKOQKCuBoiCxsoVvd4oDV4Rs3bjRp0gTbZRxDtUaNGsHOgFcCu6CQEhJjEVWnqampgwcPVscQdM+ePer42WefnTBhgjqG7lFRUfjtqk6NQmNBXesWYxUPWB3Ge8+cOXNw8M477wwdOhQHwa60C5qeng6J4aICz/2ePXuqL+HUEtRv0Y2Njd29e7fvxCQ0fsS73C2uXh1OS0tr3749vsMRI0ZgD6omQfUr7bYdPXoUz+uAf5RGQauj8UuSm91iC3t1uLy8HN5s3boVz3rsFNWkhf1K2DZmzBh1XFZWhlXT2p7aoaDVkShojXYCmORatzhEdXjq1KkdO3YcPny4Og12JTaaXbt2hZr5+fk4nTlzZr9+/U6dOnX37t3Dhw+rjSygoNURJ6jAbnGI6jCe5thQrly5Up0GuxJv9ImJiS1btsTDAae3b9+eO3duQkJCs2bNevToYW0PKGh1xAmqV7c4Ly8Pz2usl75zEm7ECeqQKkEFdIvx7B41apTvhDwCNBZUQre4b9++a9as8Z2QR4DGgka8W3zy5MmYmBi8+vjOySNAZ0HZLTYAXQVlt9gQtBS0kt1iY9BSUHaLzUFLQdktNgddV9BSdovNQNc9KLvFhqCloMQcKCgRDQUloqGgRDQUlIiGghLRREbQS6wdczgbXEGJaCgoEQ0FJaKhoEQ0FJQI5u9///9iZEw5b5LFhgAAAABJRU5ErkJggg==;" parent="1" vertex="1">
          <mxGeometry x="70" width="224" height="826" as="geometry" />
        </mxCell>
        <mxCell id="rsPY_PISphpZ_V7IE1-7-7" value="&lt;span style=&quot;background-color: initial;&quot;&gt;bin: startup&amp;nbsp; install and test scripts&lt;/span&gt;&lt;br&gt;&lt;ul style=&quot;font-size: 12px;&quot;&gt;&lt;li style=&quot;font-size: 12px;&quot;&gt;&lt;span style=&quot;font-size: 12px; background-color: initial;&quot;&gt;install.sh&lt;/span&gt;&lt;/li&gt;&lt;li style=&quot;font-size: 12px;&quot;&gt;&lt;span style=&quot;background-color: initial; font-size: 12px;&quot;&gt;runjava.sh&lt;/span&gt;&lt;/li&gt;&lt;li style=&quot;font-size: 12px;&quot;&gt;&lt;span style=&quot;font-size: 12px; background-color: initial;&quot;&gt;opennms.sh&lt;/span&gt;&lt;/li&gt;&lt;li style=&quot;font-size: 12px;&quot;&gt;&lt;span style=&quot;font-size: 12px; background-color: initial;&quot;&gt;sendevent.pl&lt;/span&gt;&lt;/li&gt;&lt;/ul&gt;" style="rounded=0;html=1;align=left;spacing=0;fontFamily=Helvetica;fontSize=12;verticalAlign=top;" parent="1" vertex="1">
          <mxGeometry x="280" y="10" width="290" height="100" as="geometry" />
        </mxCell>
        <mxCell id="rsPY_PISphpZ_V7IE1-7-8" value="&lt;p style=&quot;margin-top: 0pt; margin-bottom: 0pt; margin-left: 0in; direction: ltr; unicode-bidi: embed; font-size: 12px;&quot;&gt;contrib: Misc&amp;nbsp;&lt;span style=&quot;font-size: 12px;&quot;&gt;contributions to OpenNMS outside main code base&lt;/span&gt;&lt;/p&gt;" style="rounded=0;whiteSpace=wrap;html=1;align=left;fontFamily=Helvetica;fontSize=12;verticalAlign=top;" parent="1" vertex="1">
          <mxGeometry x="280" y="130" width="290" height="40" as="geometry" />
        </mxCell>
        <mxCell id="rsPY_PISphpZ_V7IE1-7-11" value="&lt;span style=&quot;font-size: 12px; background-color: initial;&quot;&gt;deploy:&amp;nbsp;&lt;/span&gt;&lt;span style=&quot;font-size: 12px; background-color: initial;&quot;&gt;Karaf&amp;nbsp;&amp;nbsp;&lt;/span&gt;&lt;span style=&quot;font-size: 12px; background-color: initial;&quot;&gt;deploy folder for deploying Kar filles&lt;/span&gt;" style="rounded=0;whiteSpace=wrap;html=1;align=left;fontFamily=Helvetica;fontSize=12;verticalAlign=top;" parent="1" vertex="1">
          <mxGeometry x="280" y="220" width="290" height="40" as="geometry" />
        </mxCell>
        <mxCell id="rsPY_PISphpZ_V7IE1-7-12" value="&lt;span style=&quot;font-size: 12px; background-color: initial;&quot;&gt;etc:&amp;nbsp;&lt;/span&gt;&lt;span style=&quot;background-color: initial; font-size: 12px;&quot;&gt;OpenNMS Configuration files *.xml, *.properties, *.&lt;/span&gt;&lt;span style=&quot;background-color: initial; font-size: 12px;&quot;&gt;cfg&lt;/span&gt;&lt;span style=&quot;font-size: 12px; background-color: initial;&quot;&gt;&lt;br style=&quot;font-size: 12px;&quot;&gt;&lt;/span&gt;" style="rounded=0;whiteSpace=wrap;html=1;align=left;fontFamily=Helvetica;fontSize=12;verticalAlign=top;" parent="1" vertex="1">
          <mxGeometry x="280" y="270" width="290" height="40" as="geometry" />
        </mxCell>
        <mxCell id="rsPY_PISphpZ_V7IE1-7-14" value="&lt;span style=&quot;background-color: initial; font-size: 12px;&quot;&gt;OpenNMS web app including web.xml, &lt;/span&gt;&lt;span style=&quot;background-color: initial; font-size: 12px;&quot;&gt;jsps&lt;/span&gt;" style="rounded=0;whiteSpace=wrap;html=1;align=left;fontFamily=Helvetica;fontSize=12;verticalAlign=top;" parent="1" vertex="1">
          <mxGeometry x="280" y="370" width="290" height="34" as="geometry" />
        </mxCell>
        <mxCell id="rsPY_PISphpZ_V7IE1-7-16" value="&lt;span style=&quot;font-size: 12px; background-color: initial;&quot;&gt;Lib: OpenNMS libraries – on class path&lt;/span&gt;&lt;br style=&quot;font-size: 12px;&quot;&gt;" style="rounded=0;whiteSpace=wrap;html=1;align=left;fontFamily=Helvetica;fontSize=12;verticalAlign=top;" parent="1" vertex="1">
          <mxGeometry x="280" y="420" width="290" height="30" as="geometry" />
        </mxCell>
        <mxCell id="rsPY_PISphpZ_V7IE1-7-17" value="&lt;span style=&quot;font-size: 12px; background-color: initial;&quot;&gt;Log&amp;nbsp;&lt;/span&gt;&lt;span style=&quot;font-size: 12px; background-color: initial;&quot;&gt;files corresponding to daemons in OpenNMS&lt;/span&gt;&lt;span style=&quot;font-size: 12px; background-color: initial;&quot;&gt;&lt;br style=&quot;font-size: 12px;&quot;&gt;&lt;/span&gt;" style="rounded=0;whiteSpace=wrap;html=1;align=left;fontFamily=Helvetica;fontSize=12;verticalAlign=top;" parent="1" vertex="1">
          <mxGeometry x="280" y="460" width="290" height="40" as="geometry" />
        </mxCell>
        <mxCell id="rsPY_PISphpZ_V7IE1-7-18" value="&lt;span style=&quot;font-size: 12px; background-color: initial;&quot;&gt;etc-pristine:&amp;nbsp;&lt;/span&gt;&lt;span style=&quot;font-size: 12px; background-color: initial;&quot;&gt;Original&amp;nbsp;&lt;/span&gt;&lt;span style=&quot;font-size: 12px; background-color: initial;&quot;&gt;etc files for this version of OpenNMS&lt;/span&gt;&lt;span style=&quot;font-size: 12px; background-color: initial;&quot;&gt;&amp;nbsp;&lt;/span&gt;&lt;span style=&quot;background-color: initial;&quot;&gt;without changes&lt;/span&gt;&lt;span style=&quot;font-size: 12px; background-color: initial;&quot;&gt;&lt;br&gt;&lt;/span&gt;" style="rounded=0;whiteSpace=wrap;html=1;align=left;fontFamily=Helvetica;fontSize=12;verticalAlign=top;" parent="1" vertex="1">
          <mxGeometry x="280" y="540" width="290" height="40" as="geometry" />
        </mxCell>
        <mxCell id="rsPY_PISphpZ_V7IE1-7-19" value="&lt;span style=&quot;font-size: 12px; background-color: initial;&quot;&gt;mib&lt;/span&gt;&lt;br style=&quot;font-size: 12px;&quot;&gt;&lt;p style=&quot;margin-top: 0pt; margin-bottom: 0pt; margin-left: 0in; direction: ltr; unicode-bidi: embed; word-break: normal; font-size: 12px;&quot;&gt;&lt;span style=&quot;font-size: 12px;&quot;&gt;definitions used to create event and collection configs&lt;/span&gt;&lt;/p&gt;" style="rounded=0;whiteSpace=wrap;html=1;align=left;fontFamily=Helvetica;fontSize=12;verticalAlign=top;" parent="1" vertex="1">
          <mxGeometry x="280" y="590" width="290" height="40" as="geometry" />
        </mxCell>
        <mxCell id="rsPY_PISphpZ_V7IE1-7-20" value="&lt;span style=&quot;font-size: 12px; background-color: initial;&quot;&gt;rrd&amp;nbsp;&lt;/span&gt;&lt;span style=&quot;font-size: 12px; background-color: initial;&quot;&gt;files – performance data&lt;/span&gt;&lt;span style=&quot;font-size: 12px; background-color: initial;&quot;&gt;&lt;br style=&quot;font-size: 12px;&quot;&gt;&lt;/span&gt;" style="rounded=0;whiteSpace=wrap;html=1;align=left;fontFamily=Helvetica;fontSize=12;verticalAlign=top;" parent="1" vertex="1">
          <mxGeometry x="285" y="690" width="285" height="30" as="geometry" />
        </mxCell>
        <mxCell id="rsPY_PISphpZ_V7IE1-7-22" value="&lt;span style=&quot;font-size: 12px; background-color: initial;&quot;&gt;system: maven&amp;nbsp;&lt;/span&gt;&lt;span style=&quot;background-color: initial; font-size: 12px;&quot;&gt;.m2 directory used to store bundles for &lt;/span&gt;&lt;span style=&quot;background-color: initial; font-size: 12px;&quot;&gt;Karaf&lt;/span&gt;&lt;span style=&quot;font-size: 12px; background-color: initial;&quot;&gt;&lt;br style=&quot;font-size: 12px;&quot;&gt;&lt;/span&gt;" style="rounded=0;whiteSpace=wrap;html=1;align=left;fontFamily=Helvetica;fontSize=12;verticalAlign=top;" parent="1" vertex="1">
          <mxGeometry x="285" y="780" width="300" height="40" as="geometry" />
        </mxCell>
        <mxCell id="rsPY_PISphpZ_V7IE1-7-24" value="&lt;span style=&quot;border-color: var(--border-color); color: rgb(0, 0, 0); font-style: normal; font-variant-ligatures: normal; font-variant-caps: normal; font-weight: 400; letter-spacing: normal; orphans: 2; text-indent: 0px; text-transform: none; widows: 2; word-spacing: 0px; -webkit-text-stroke-width: 0px; background-color: initial; text-decoration-thickness: initial; text-decoration-style: initial; text-decoration-color: initial; font-size: 12px;&quot;&gt;xsd files documenting etc directory configurations&lt;br&gt;&lt;/span&gt;" style="rounded=0;whiteSpace=wrap;html=1;fontFamily=Helvetica;fontSize=12;verticalAlign=top;align=left;" parent="1" vertex="1">
          <mxGeometry x="290" y="730" width="280" height="30" as="geometry" />
        </mxCell>
        <mxCell id="rsPY_PISphpZ_V7IE1-7-27" value="data: karaf data directory" style="rounded=0;whiteSpace=wrap;html=1;align=left;fontFamily=Helvetica;fontSize=12;verticalAlign=top;" parent="1" vertex="1">
          <mxGeometry x="280" y="180" width="290" height="26" as="geometry" />
        </mxCell>
        <mxCell id="rsPY_PISphpZ_V7IE1-7-28" value="&lt;span style=&quot;font-size: 12px; background-color: initial;&quot;&gt;database report report definitions&lt;br style=&quot;font-size: 12px;&quot;&gt;&lt;/span&gt;" style="rounded=0;whiteSpace=wrap;html=1;align=left;fontFamily=Helvetica;fontSize=12;verticalAlign=top;" parent="1" vertex="1">
          <mxGeometry x="280" y="640" width="290" height="30" as="geometry" />
        </mxCell>
        <mxCell id="rRMJ85VLG9g3N1hGrjLC-2" value="" style="shape=image;verticalLabelPosition=bottom;labelBackgroundColor=default;verticalAlign=top;aspect=fixed;imageAspect=0;image=data:image/png,iVBORw0KGgoAAAANSUhEUgAAASoAAAGCCAIAAADYFxn7AAAAAXNSR0IArs4c6QAAAARnQU1BAACxjwv8YQUAAAAJcEhZcwAADsMAAA7DAcdvqGQAABglSURBVHhe7ZzNjy3HWYf9d3k1G+LEHoTY8RecBWukWSPEl0BwQREIBJoZkLzyerZWIE6cxCHBeJdVJMf3+tqOE5BmMTOepqq6Pt7urj6nT3efUx/9PLqaW/32W9V9nXronmHO740GABKBfgDJQD+AZKAfQDLQDyAZp9Lvf//7d3/788vf/uzyN+rPf11+/dN39J+P3vn1T95Wf7768du/+fgPbSvAVjmVfsq95ot/b774t+aLm+b1dfP6X5vX/9J8/s/N5//UvPrH5tU/fPmj79hWgK1yMv1+pvQbda959d0vP0Q/2Dqn0k+9c+5xr3n591+cX79fvHjzjTdf/MIeLeVu94ZivfVggxzQ7/n52Y4cw0oU9f3eHveal3/3xQ+/bVvXRDlxHiG0fLs7ewAwj336XV9fX11dPT4+2uOmUWNVubm5scfjfP3Td/a417z829c/KF0/HnywlFH9np6elGkXFxfewNa9tqLOtm1jGP1G3Ws++5u9+unXxBb7hAkF/8wxArwwb4D2HVA/kSymKRzbOd6Z4VxD/7K6bbdTNXdNS1jYzB3cLcA09j39Hh4evG/39/d+LJ+HY3z90Tt73Gs+++vXH7xlW/sMv0XT293u7HDSOOA1EcJ0pmp8UQ72zr3bmZE+N1zO0Gl2NwdwHAe+9/NPvMvLy+nuKX79k7f3uPf86Z9//v23nh//z3ZLtGDd7dytuN0uBAhjWTRHlt7Z2NzwDDPoa4i2cLa9k/4pvxzAdA7op5DvnBPdU2j9RtxrPvurrz/6gy8//L2v/+ePbLdkLf3CLDXqnY3NHV6309ajf0rPdmoCTOSwfgpl3e3trXoXtccT+OrHSr+4e82v/lI9+p5++cfqq+3uoHdyd9erve52dpAkppAs+mFYL9bWKYaqQbb1iJxS1xnrBogySb8ZfPWj74y51/zqL17957fs1zjahBZhXYvf4VKAMLYz9TQ3R//0pD3r2+JzxVXaFWRbD3FKDS32ZgEmcir99O+UjbjXfPpnr/7jW/YrwIY5mX4fKv3i7jWf/ulLrZ/5CrBhTqWf/p2yEfeaT//k5feUfuYrwIY5mX4//PbrH5g/H7z1+ff1H/WdnnrbVE88Zd1n3/sd9fXVB79vuwE2yan0A4CDoB9AMtAPIBnoB5AM9ANIBvoBJAP9AJKBfgDJOLd+5H8CeM6tH/mfAJ6z60f+J4Dj3PotyP/c8+m7ccJnbQGyY6Z+KfI/Z+kHkDFz9EuU/4l+UBtH65cu/9Pod+cSJLyIIiHChT3oTpfPaaWVORK2b2RiJP8T4DTMefolyv9Ubjgn9LBVJozEt3m66OQxRgWP1OGBicPzACdi5vd+/ol3vvzPjkhurM0JkqiqOYh1ugOh3BETAU7BTP0U8p1zonuK+fmfUTeOssid1qAfZMB8/RTKujPmf0bdUAOnUTBqrDP4dsxEgFOxSL8ZLMj/HHFDy9MSNceO1V+B9uS0iQCn49z6kf8J4Dm7fuR/AjjOrR/5nwCes+tH/ieA49z6AYAH/QCSgX4AyUA/gGSgH0Ay0A8gGegHkAz0A0hGLvqR/wkbJBf9yP+EDZKNfuR/wvY4iX4TQwclC/I/AUplff0+/vjj999//5tvvrHH01iQ/zmET8pCGaysn3ruKffefffdYw1ckP85BP2gDNZ/+inrZhi4IP9TxkbsTLCnQ2S5dAoAeXCS7/1mGLgs/9M96+52ZiSffto9HoWQJyfRT/Hw8PDee+8pAz/55BNb2sv8/M/wbDPoB5zQT5/lmQeZksvTb37+Z0Qw9IMyyOV7v2X5n73XS14+oQxW1m/2Tz4X5H923z/No04b6cb+SMFzELJi/affvP+/H/mfsEFO8r3fjN96If8TNshJ9JsB+Z+wQbLRj/xP2B656AewQdAPIBnoB5AM9ANIBvoBJAP9AJKBfgDJQD+AZOSiHzmfsEFy0Y+cT9gg2ehHzidsj1z0I+cTNsjK+g0/ajTxw0er5nyOIT8FD5CeNfW7vr6+urp6fHy0x02jxqpyc3Njj8dZNedzDPSDvFhNv6enJ2XaxcWFN7B1r62os23bGCvlfPo4CWPana0b50LkBJkTkAlrPv0eHh68b/f3934sn4djLMv5dEKFXCUjWzvsFHn6QUas/L2ff+JdXl5Od0+xLOczPM6UYeagY1q0CJCclfVTyHfOie4p1sr5jJnmO9AP8mJ9/RTKutvbW/Uuao8nsDDn0/oXVNRFq1qniH6QESfRbwYr5Xx6u7Rpu50tWzlbKeUxQFJy0W/tnE8edFAA2ei3cs4n+kEB5KLf2jmf6AcFkI1+5HzC9shFP4ANgn4AyUA/gGSgH0Ay0A8gGegHkAz0A0gG+gEkI3f9yP+EisldP/I/oWKy14/8T6iX3PUj/xMq5kz65Z3/CZCGc+iXff4nQBpOrl/2+Z+G0ClSYV600RS+bbzoFlST/Uquob80gOccT7+S8j/vdmZk2ryJYhQvDtYODWrQNgIMONP3fv6Jl2P+Z3g+GXRJtvnx9KIYm8V9FUByJv0U8p1zonuKc+R/djsNUammF3tjK3jvGgDn00+hrMs1/1O4oomKNL3YG2vU1TrHAGfWbwbnyf8UnWu/fKq/LeFqAC2560f+J1RM9vqR/wn1krt+5H9CxWSvH/mfUC+56wdQMegHkAz0A0gG+gEkA/0AkoF+AMlAP4BkoB9AMkrVj/xPqIBS9SP/EyqgWP3I/4TyKVW/lfI/j/0NbH5jG9akWP3Wyf9EP0hJqfqtlP+JfpCSovUbda+Zlv9pUjudTiFvwgfADBNBhX4in8JM0MchTwJPYQLF6rdG/qcxqLVE6CKjPtua7uu1hUXCWVVz/okhwCil6rco/7M1SON0MiIGtDreNNtndJL9wS9xti1agwH2U7J+I+41B/M/4/oFnQzulMaf3q+fXbtzBYBxStVvlfxPLZF1TBe7zohKkM3pJxbpqKjN2+2wD6ZRrH5L8j+1O5qRH72El89BIqjXT/Z3ZBNeAhygVP3Wzv8cIkw7BjUN+2Aixeq3cv7nkFn66ZfPGc7CRilVv7XzP4ccq1/7Mop8cATF6kf+J5RPqfoBVAD6ASQD/QCSgX4AyUA/gGSgH0Ay0A8gGegHkIzc9SPPEyomd/3I84SKyV4/8jyhXnLXb6U8z7qZ+dkoSM6Z9Ht+frYjx7ASZaU8z7pBv1I5h37X19dXV1ePj4/2uGnUWFVubm7s8Tgr5XnWDfqVysn1e3p6UqZdXFx4A1v32oo627aNsUqep6KTFtFP75SdbaNpe+EzKdq28aJbUE32K7mG/tJ9+jepj0OnNyt2hyYLQx36Jj2y6K6RpSAbzvH0e3h48L7d39/7sXwejrFKnqfZh+3WM/szbGhfdBtThnz6fS5G8eJg7dCgBm1jnLBQuB8xxQ3V35E7DCU/tLiKm9+W9t0IpOBM3/v5J97l5eV09xSL8jzFfnObr7NTbVF3CnRJtvnx9KIYm8V9VVzL3M7oTbZFlxc69Q7N0NJWBktBTpxJP4V855zonmJRnmd8Z/tt6Dq6nQbZ5sfTi72x1ad3DU38JnVZTW6/2uMpdxjaOlM7S0FOnE8/hbLu9vZWvYva4wmskucp9qUuho05LFpim/uIYm+sGRFAtQ1vsu1W39m5Q9PWnR67lq/ppdxZu1R3NuTBWfWbwaI8T70LWzo7dZDeKTv3vNpNL4qx+tsSrtYhcpMKU5UzJt2ha+r6pm9h5OKQltz1WzvPU+7araD+zdiXJ9nrt3Ke5/b0U0/Ezf0fnGLIXb+18zw3pV/7Lop8+ZK9fuR5Qr3krh9AxaAfQDLQDyAZ6AeQDPQDSAb6ASQD/QCSgX4AyShVP/I/oQJK1Y/8T6iAYvUj/xPKp1T9kuV/6g/PDX+NeYufY4LlFKtfmvxPLV/ss3PoB3MoVb9E+Z9jmqEfzKFo/Ubda/bnf4rkBvsoE1EO7uFmjOqkeupHX4tVzWc76D70g6MpVr/5+Z9amq4r2ivhYXvSyNZWw3njpJ0aqkZD9IOjKVW/tfI/Nd2Kssoc9EzzTrqimhWMk80AUylZvxH3mmPyPzXoB4koVb8F+Z/atq4rSh7nX1DxkH5ilp6EfnA8xeq3JP/TmNMirGsZKifHshiW4UcvMI9S9Vs7/xMgAcXqt3L+J0ACStVv7fxPgAQUqx/5n1A+peoHUAHoB5AM9ANIBvoBJAP9AJKBfgDJQD+AZKAfQDJK1Y+cT6iAUvUj5xMqoFj9yPmE8ilVv2Q5nwDrkVi/5+dnO3IMK1FWzfnsfogW4Fyk1O/6+vrq6urx8dEeN40aq8rNzY09HmfVnE/0gzQk0+/p6UmZdnFx4Q1s3Wsr6mzbNsainM8QLbG784kRikHyhC0AnIaUT7+Hhwfv2/39vR/L5+EYC3I+xbPubmdG8umn3eNRCOch8fd+/ol3eXk53T3FspxPgX7ACf30WZ55cCYS66eQ75wT3VOsmfOJfpCI9PoplHW3t7fqXdQeT2BBzqf+Zq/7esnLJ6QhC/1msCjnU75/mkedNtKN/ZGC5yCclFL1I+cTKqBY/cj5hPIpVT9yPqECitWPnE8on1L1A6gA9ANIBvoBJAP9AJKBfgDJQD+AZKAfQDLQDyAZtelH/icURG36kf8JBVGdfuR/QjnUpt+q+Z/yY7hrcYo1oVQy1a/e/E/0g0CO+lWd/4l+EMhOv4T5n8oMS0idsKpET+12b5pj03ZnAyzUsc+yCJ650psvXqAfeHJ8+iXK//R464J+DnnKn9NjUXZ1PW5lDSOjYW9N2C6Zfu/nn3jny/9UGHkMXqaOYobBqYNj5ZyvdRpg62Sqn0K+c050T7FG/qfXRfgzdkpzaIx+MEK++imUdefL//ReaNnakSvtOaU5OFYDXj4hQtb6zWBB/qdRQ79d7nb9R9yeU9PGatguwI9eQFCbfuR/QkFUpx/5n1AOtelH/icURHX6kf8J5VCbfgAFgX4AyUA/gGSgH0Ay0A8gGegHkAz0A0gG+gEkYyv6kf8JGbIV/cj/hAzZjH7kf0J+bEW/lfI/5cf5ZrBwuieT24ClbEa/dfI/0Q/WZCv6rZT/iX6wJpvSb9S9Zm/+Z8iaCFERege7nM/QoGgzXTSRot/34VzoD8jFpSp+LIr9lcZXdmcIvMiHzeg3P/9T7XW5tb0AfguHBtMRGmJFM1B/9+WQ9BZ3wzAeDvRQj1QhvrI6MfxXQGK2ot/8/E+1W8Neje17vZ3Dlrf7P1r0s3oGmENDO0UsHh931gmo2b2VPaoeqnJNSMmW9BtxrzmY/xnZuGIH6x0/MC1a7O57Y4poCsi26NgNulfxRFZWpXDlzm1AQrai3/z8T71Z7VY227orgCY0CB/Gip1935EiINvCZLNk7+qh1MOt3Ols19ErxifBudmMfvPzP9utq+n96CXsYLOjbcu+opvlFuw9ohzdxX3zbhe5eriKWay/suh0p/jRSz5sRT/yPyFDNqMf+Z+QH1vRj/xPyJDN6Ef+J+THVvQDyBD0A0gG+gEkA/0AkoF+AMlAP4BkoB9AMtAPIBm16UeeJxREbfqR5wkFUZ1+5HlCOdSmXx55ngfx68+9kP6YH5/ZK57q9Dt5nucqZs7Tb5VLQ0bUpt/p8zzRD1ajSv1G3WuOzvPUW96i0xvCURvm0D3bEuIfbE3kQbguL5IwajCvW+pdOjqxu776RxhQNluq02/lPE+P3+5i3wd8UU/tng7LipPD1cSybWJnfClfkBOj67uqOA+5UZt+a+d52p1s8Ds79PXPagG6e71bUe3mwC/iBrpNoJqGS3UuLSfuWb83hryoUb8R95oZeZ5hc/vTYjcPz4aKo1sZ6DG8kGNYkZcemThYvzeGvKhNv5XzPP3W1aV2JHZz5GwYOcKyQhU/Uw56E6NL+UJn4vj6vTHkRXX6rZznqXe0Ke127uFou/Q+j5wNq3SsaBkqIdwIbX5mfylx6ejE4fq9MeRFbfqR5wkFUZ1+5HlCOdSmH3meUBDV6UeeJ5RDbfoBFAT6ASQD/QCSgX4AyUA/gGSgH0Ay0A8gGegHkIza9CPnEwqiNv3I+YSCqE4/cj6hHGrTb6WcT4BzUJ1+6+R8LoRPuMIkatNvpZzPhaAfTKJK/Ubda6blfJo4B31gMx8UXqhOjzvRSdRUFYdu6U8A8FSn36KcT/fIapM2VcEZ44aDHl0RJoZRaEM7GKM2/RblfLYPqRbtjFfHqjbS40wLY1E0U3wHgKRG/Ubcaw7mfA6eU6qmzGm/2uN+zyH9DMbBweqweWrTb2HOZ0cahTZvt3vTizPsmaSfIjgM4KhOvyU5n+1DqsUaZ0rysdXvieqnR7bBjhRyFQBNbfqR8wkFUZ1+5HxCOdSmHzmfUBDV6UfOJ5RDbfoBFAT6ASQD/QCSgX4AyUA/gGSgH0Ay0A8gGegHkIza9CPnEwqiNv3I+YSCqE4/cj6hHGrTb37Op/4gHx+IhbNSnX5Z5HxGiXwEHjZObfrlkfMZBf2gT5X6jbrX7Mv59HqYwZ0Nldi1iZ8GZ0+nISglcihcsITu3O1CPIVGnwutRFBsmer0WyHnUw2cVWJoxq0sohq+Ywyne0U7XY/FEO2gPv3m53wGPYQn8bEs6gP3PAtK2WJ8un34hSVgq9So34h7zf6cz6DHiDPxBqfdUfoZjINiDmyP2vRblvM5tCs6VgNXDdbponWpU4wuZVGN/RJsier0m5/zKe2KOtNp8D9QCY+v9nGmiU7XBxo1wY4UYTZskNr0O0vOZ0cqgNlUp985cj7RD9ahNv3OkvOJfrAO1elHzieUQ236ARQE+gEkA/0AkoF+AMlAP4BkoB9AMtAPIBnoB5CM2vQj5xMKojb9yPmEgqhOP3I+oRxq029+zicM0Z9gXPLL5fxu+gGq0y/fnM9SWNEZ9DtAbfplnPNZCuh3PqrUb9S9Zl/Op0yL8CEQZgPti/QUmS4vbISEaxsv7gsR7S/tiN6JLprYC9O77P5jeaRmevy+xu4znDH/+HBNGFKdfotyPt1O0huo3Te6aIedottVdzszMm1+J4tRvDhYOzSoQdvYR3R3b8+uEJaYef+h5IdhPJiiCuP32Z7RFwxLQYTa9Juf86k3S9hQbneJbeeLZlsFdEm2+fH0ohiP7lnZrA/6t7f+/YvxcMrYfap654KRFvDUqN+Ie83+nM/D29d1dDsNsS17RLE3bvd27xqywd+BKK5//2IcmaLR5d59qpKf3VkKItSm37KcT7eTwm7TRbuDokWL3Gd+PL3YG2vcNpYTXUfnTuQK696/HA+nWKL32V5GXzA+CSzV6Tc/59PuF4PfNHpX7Y30bKt+8ynkRpxYFGP1t8WrEiYO7kSusNb964NIvTfFNinaVUWnO8WPXg5Sm35r53yKXZWYeXeSz/1DhOr0WznnE/3ghNSm39o5n+gHJ6Q6/cj5hHKoTT+AgkA/gGSgH0Ay0A8gGegHkAz0A0gG+gEkA/0AklGbfuR8QkHUph85n1AQ1elHzieUQ236bSnnM79fp9afCVxyS5v7BfHq9NtQzmcmm3XF20C/wtlSzif6FU+V+o261+zL+QxpCiY+wWyFo1M6Ow2jW8lNE3EMeqJP7FQHljbJIb7s/muNTvFXkfkR9jpja/b+24R1BPbG3aT+lP5xIPJfYytUp9/snE+1czr7Qh2LzSZGdoeIYbxB76roZgrdZuOF5QbdqhjODpYVxbCkZ3RKO+rMia7ZKYZJZtRbxw3DeDBFFXo3aNFLDf5rbIXa9FuW8yn/xz+0qw436AO9sczKBrPN1GGnJTJRH1nGl+0Uu9M1h6bou2q3vSbS4Ivh/g26JNti4+EUUwlLe+L/NbZCjfqNuNfsz/k0tNtmsBH9OFqUY1nUi5mlusQ3nJgY5vnW6LKyKMcth6aEq2jUicGarqPbaZBtsXFkikaX3bPOokp+dmepTVCbfgtyPi1uP0R3WLQox2rgqiNbsO1pT5jtOFjZD/XpPcuKKWEsBwenuPvrNERnhWmG3jrD8XCKRa1q6p3O9jL6gvFJ1VKdfrNzPvU2aInuVL9XhkU51oNIrmYP1WXo/ejFrWb2oT6tVtqzrJzix53B3inhOmLTR2fJzrbaWUcdROq9KbZJ0a4qOt0pfvRSPGvnfB6L2FVT0Hs0bPJxjlxWM2OKYt4smEl1+q2c83ksx21f1T2tHf3qpDb91s75PJYp27f/JjcB9KuT6vQj5xPKoTb9AAoC/QCSgX4AyUA/gGSgH0Aimub/AVWAGdDp+HNgAAAAAElFTkSuQmCC;" vertex="1" parent="1">
          <mxGeometry x="740" y="180" width="367.48" height="476" as="geometry" />
        </mxCell>
        <mxCell id="rRMJ85VLG9g3N1hGrjLC-3" value="&lt;h1&gt;OpenNMS install directories in Linux or an OpenNMS Container&lt;/h1&gt;" style="text;html=1;strokeColor=none;fillColor=none;spacing=5;spacingTop=-20;whiteSpace=wrap;overflow=hidden;rounded=0;" vertex="1" parent="1">
          <mxGeometry x="585" y="10" width="455" height="100" as="geometry" />
        </mxCell>
        <mxCell id="rRMJ85VLG9g3N1hGrjLC-4" value="&lt;h1&gt;Mapped OpenNMS container directories in docker compose project&lt;/h1&gt;" style="text;html=1;strokeColor=none;fillColor=none;spacing=5;spacingTop=-20;whiteSpace=wrap;overflow=hidden;rounded=0;" vertex="1" parent="1">
          <mxGeometry x="690" y="670" width="455" height="70" as="geometry" />
        </mxCell>
        <mxCell id="rRMJ85VLG9g3N1hGrjLC-5" style="edgeStyle=orthogonalEdgeStyle;rounded=0;orthogonalLoop=1;jettySize=auto;html=1;exitX=1;exitY=0.5;exitDx=0;exitDy=0;entryX=-0.011;entryY=0.33;entryDx=0;entryDy=0;entryPerimeter=0;" edge="1" parent="1" source="rsPY_PISphpZ_V7IE1-7-11" target="rRMJ85VLG9g3N1hGrjLC-2">
          <mxGeometry relative="1" as="geometry" />
        </mxCell>
        <mxCell id="rRMJ85VLG9g3N1hGrjLC-6" style="edgeStyle=orthogonalEdgeStyle;rounded=0;orthogonalLoop=1;jettySize=auto;html=1;entryX=0.003;entryY=0.532;entryDx=0;entryDy=0;entryPerimeter=0;" edge="1" parent="1" source="rsPY_PISphpZ_V7IE1-7-12" target="rRMJ85VLG9g3N1hGrjLC-2">
          <mxGeometry relative="1" as="geometry">
            <Array as="points">
              <mxPoint x="620" y="290" />
              <mxPoint x="620" y="433" />
            </Array>
          </mxGeometry>
        </mxCell>
      </root>
    </mxGraphModel>
  </diagram>
</mxfile>
